<svg id="Layer_1" data-name="Layer 1" xmlns="http://www.w3.org/2000/svg" viewBox="0 0 507.65 178.78"><defs><style>.cls-1,.cls-2,.cls-3{fill:#fff;}.cls-2,.cls-3{isolation:isolate;font-family:OpenSans, Open Sans;}.cls-2{font-size:96.68px;}.cls-3{font-size:16.11px;}</style></defs><title>pnsnlogo_white</title><path class="cls-1" d="M130.92,446.78l-.51,0-.15-24.2-.18-40.62-.15-39-.15-32.21-.14-23-.13,15.78-.15,12.78-.16,6.54-.15,8.75-.16,16.72-.15,25.11-.15,21.53-.17,9.62h-.52l-.15-5.15-.16-14.64-.15-10-.13-4.6H127l-.17-6.33-.11-6.53-.15,2.8-.33,1.33-.4-.86,0,.91-.34.54-.12,3-.67.71-.19-7.16-.08,1.29h-.51l-.16-1.86-.06-.3-.13.15-.25-.93-.13,4.15-.17,6h-.52l-.16-2.82-.06-3.8,0,1.85-.16,2.05h-.51l-.17-3.56-.16-3.64-.15-2.74-.12-.51-.17-.09,0-.19-.1,2.95-.16,6H120l-.16-2.28-.1-3.7-.17,1.6-.15,1.68h-.52l0-.71-.14,1.06-.12-.2-.11,1.85-.15,2.42h-.52l-.09-.81v.18l-.17,1.87H117l-.16-2.66-.09-4.75v.1l-.16,1.07-.51,0-.09-3.86,0,.87-.15,3.47-.22,2.16L115,361l-.18-1.56-.08-2,0,.15-.15,4.22-.16,1.29-.51,0-.18-4.86h-.34l-.23,11.27h-.51l-.16-2.81-.15-6.22-.15-2,0-.19-.08,3.35-.15,3.8h-.52l-.31-8.14-.1-.84-.44.66,0-.18,0,.22-.5,2.17-.06-.53-.06.79h-.52l-.17-2.71-.08.62-.16,2.09h-.51l0-.4-.09,4.22-.62,3.34-.09-5-.07,3.38-.66.81-.19-9.13-.1.8-.57.7-.32,2.8-.33-3.54,0,.34-.54,2-.26-3.41-.12,5-.16,5h-.52l0-.54-.07,2.79-.16,2.17H103l-.18-5-.15-10.05,0-1,0,.26,0-.22-.15,4.45-.66-.37,0-.21-.34,1.43-.21-3.13,0,.3h-.52l-.15-1.44-.08-1.49,0,.09-.15,5-.17,4.65-.27,5.67-.56-3.33-.19-10-.08,2.94-.15,3.3h-.52l-.1-1.63-.21,0-.11,5.32-.15,2.33-.52,0-.23-9.34-.31,1.4-.18-5-.18,5-.59,1.57-.16-3.1,0,.61-.16,7.54-.63,2.38-.22-15.5-.08,7.57-.15,10.68-.52,0-.15-2.81-.18-10.21-.09,2.37-.16,2.8h-.51l-.16-2.2-.15-5.23L92,354.47l0-.5-.25,8.64-.15,1.57h-.52l-.14-3.12-.12,2.07H90.3l-.15-1.26-.06-.17-.22.08-.2-2.08,0-.72-.1,3.8-.35-1-.09,1.91-.15,5.57-.52,0-.15-1.92-.16-13.63L88,360l-.15,4.55h-.52l-.11-6L87.07,368l-.62,2.34-.21-6.55-.16-4-.14-1.32-.15.12-.17,0-.28.23-.16-.26-.11.29-.5-.34-.08-.24-.12.1-.23-.06h0l-.27.3-.37-.37-.27.36-.21-.28-.31.06-.15-.1-.26.25-.27-.23-.25.63-.27-.25-.11.08-.39-.17-.17-.33-.4.25-.11-.34,0,.06-.22.12-.26.18-.4-.23-.06.08-.43.36-.25-.52-.14-.06-.07.21-.43.29-.23-.31-.37.84-.35-1H77l-.34.65-.48-.13-.16-.45-.12,0-.12.17-.44.44-.17-.44-.12.23-.45-.43-.16-.27-.22.15-.08,0-.16.23-.28-.11-.07.21-.44.46-.3-.56-.16-.14-.47.3-.22-.27-.38.23-.25-.24-.17-.05-.2-.19-.19.3L70.4,358l-.07-.13-.23.26-.23.16-.35,0-.09-.11-.07.12-.32.36-.25-.22-.3.17-.13-.16-.31.46-.34-.66-.14.19-.29-.06-.23,0-.1-.09a1.08,1.08,0,0,0-.22.28l-.11.23-.23-.1a2.08,2.08,0,0,1-.66-.56l-.13-.15-.11.15-.12.36-.29-.25a1.36,1.36,0,0,0-.28-.18l-.07,0a1.21,1.21,0,0,1,0,.18,1.86,1.86,0,0,1-.31.68l-.26.33-.18-.37a2.16,2.16,0,0,0-.6-.61,3.69,3.69,0,0,1-.5-.45l0,0a1.52,1.52,0,0,0-.32.18l-.22.26-.19-.28L62,357.8a.45.45,0,0,0-.07.18l0,.23-.53,0-.06-.1a.67.67,0,0,1-.25.19.75.75,0,0,1-.57,0l-.06.14a1.19,1.19,0,0,1-.28.47l-.36.35-.08-.49-.1-.11,0,0-.11.06-.13.1-.15-.08a1.45,1.45,0,0,1-.51-.51l0,0a.09.09,0,0,1-.06,0l-.06,0-.11.07-.13,0-.1-.05-.13.08-.21.13-.14-.2a3.15,3.15,0,0,0-.51-.53c0,.08-.1.15-.13.21l-.16.36-.27-.28a.62.62,0,0,0-.17-.11l-.08,0a1.28,1.28,0,0,0-.18.41c0,.07-.05.15-.08.23l-.18.46-.27-.42a1.49,1.49,0,0,0-.39-.33,3.19,3.19,0,0,1-.4-.33,1.61,1.61,0,0,0-.34.4c0,.07-.1.15-.16.22l-.08.1h-.13a.91.91,0,0,1-.8-.34,1.78,1.78,0,0,1-.7.49l-.18-.49a1.26,1.26,0,0,0,.67-.6l.19-.39.25.36a1.32,1.32,0,0,1,.12.2.33.33,0,0,0,.33.24l.07-.09a1.93,1.93,0,0,1,.69-.67l.24-.14.13.25c0,.12.23.24.4.37l.19.13a1.2,1.2,0,0,1,.44-.6l.18-.14.16.17.17.11h0l0,0a.88.88,0,0,0,.12-.2l.15-.32.42.38a3.86,3.86,0,0,1,.51.48l.1-.07.12-.1.15.07a.35.35,0,0,1,.09.07l.09-.06.19-.17.18.18c.08.09.14.17.2.25a1,1,0,0,0,.23.27l.07,0,.12-.07.23-.14.13.25.06.07h0a1.1,1.1,0,0,1,.3-.49l.16-.14.17.12c.11.09.21.12.28.09a.19.19,0,0,0,.1-.13l0-.23h.52l0,.09a1.54,1.54,0,0,1,.27-.31l.27-.23.13.33.1.08.26-.14.2-.1L63,357l.13.27a1.66,1.66,0,0,0,.5.49,4.65,4.65,0,0,1,.48.42,1.05,1.05,0,0,0,.05-.19,2.36,2.36,0,0,1,.22-.54l.16-.26.23.19a1.59,1.59,0,0,0,.27.17l.12.07,0,0a.92.92,0,0,0,.11-.15l.13-.32.27.2a3.17,3.17,0,0,1,.41.41,1.72,1.72,0,0,0,.29.31,2.27,2.27,0,0,1,.38-.38l.18-.13.29.28h.09l.47-.61.3.66.35-.17.15.2.31-.07,0,0,.22-.43.44.14.11.13h0l.35-.41.44-.08.13.23,0-.05.38-.1.38.34.19.07.28-.48.39.52.17-.12.32,0,.26.19.13.11.18-.57.37.29.14-.21.22.09.4-.27.32.43.06.1.06-.12.48.13,0,.11.07-.11.18,0,.32-.39.38.58,0,.08.17-.36.3,0,.27-.07.23.23.29-.62.34.64.12-.39.48,0,.18.25.17.06,0,.07.18-.27.52.32.14-.08.17-.29.49-.23.12.34.22-.27.34.55.1.21.18-.14,0,0,.17-.47.23-.65.34.87,0,0,.34,0,.14.1.31-.21.09.12.39-.58.27.67h0l.29,0,.08,0,.09-.07.46-.14.09.26.11-.3.46.5,0,0,.17,0,.06-.05.38-.36.34.61.16,1.53.06,1.55,0-3.68.16-12.23.65-2.09.11,8.49,0-1.26.16-7,.64-2.94.18,13.21.08,6.86,0-.81.34,0,.12-4.27.15-2.71h.52l.15,3.62.15,3.17.14,1.42.09,0v0l0-.51.16-4.79.66-.13.09,2.57.18-6.44.38-3.41.45,3,.17,3,.31,2.83.05,1.85,0-1.15.19-3.91.65.22.13,5L94,346.44l.17-7.78h.51l.16,5.16L95,357.75l.15-5.46.64,2.39.08,1.86.17-4.92.56-2.94.28,5.61.08,2.29.38,0,.08,3,0-1.46.16-1.9h.52l.11,3.36.14-.49.17-6.52.15-3.47h.52l.15,1.58.21,10.44.06-1.72.16-5.06.2-.78.13,0,.52-3.09.17,3.38.45-2.7.32,5.41.27-1.35.06.71.06-1.57.15-2.42h.36l.36-2.2.26,6.06.11,7v-.34l.16-3.35h.51v0l.11-4.63.15-2.36h.52l.15,1.8.1,1.49v-.11l.61-1.27.17,2.14.3-2.28.2,2.06.29-3.8h.52l.12,4.36.15-4.76h.51l.12,3.6.13-2.45h.52l.12,3.38.31-2.18.51,0,.11,2.11.28-2.44.15,1.51.12-1.71.58,1.59.07.51.13-.18.42.46.17,1.28,0,.73.09-4.4.66.32.16,3.77.15.74.14,1.75.13-6.79h.52l.14,1.78h.47l.12,2.39.15-1.8.42-3.1.4,3.2.14,3.19.13-2.95.16-4.75.15-4.1h.52l.15,4.28.12-1.49H117l.16,5,.12,6,.55-2.15.12,1.69.14-2.42.22.36,0-.47.16-2.41h.51l.08,1.08.56-5.43.45,3.19v.26l.1-2.77h.57l.26.43.14.94.14.07.19.81.19,3.8.07-3.52.16-4.45h.51l.16,4.44,0,3.44.07-1.95.45-1.41.36,1.64.18.44.17-.21.09.43.23-5,.58,2.61.18,5.24.29.83.12-2.1.62-.34.06.62.09-1.77.16-4.44.15-1.48.52,0,.15,3.38.16,9.26.07,2.67.4,2.76.16,5.51.17,11.92.09-13.23.16-25.11.15-16.73.15-8.75.16-6.54.15-12.78.17-20.77.16-14.65.51,0,.16,1.43.15,15.69.15,25.59.16,32.21.15,39,.16,37.61.11-17.74.15-27.15.16-26.32.17-23.33.15-13.66H132l.15,5.24.16,23.45.12,19.36H133l.15,2.4.16,9.59,0,3.68.06-12.65.17-20.23.16-2.8h.51l.11,4.63.51,0,.15,4.33.17,3.2.15,1,.14,4.07.12-3.57h.51l.17,3.11.16,2.31.15.59,0,1.17.23-22,.15-4.93h.52l.15,6.89.16,10.91.15,9.25.31,15.06.15,5,.12-9.63.15-14.88.15-6.34h.52l0,1,.22-16.56.15-1.92h.52l.15,4.63.17,4.43.16,5.81.3,13.5.16,4.71.11-5.13.16-8.08.15-3.62h.52l.15,1.63.15,5.76.28,18,.14-7.74.16-15.11.16-13.69.68.54.15,9.09.16,5.81.15,2.59.07,2.57.05-2.28.15-4.84h.52l.15,2.48.12,3.91.15-3.52.15-4.09.28-5.72.55,3.56.15,7.51.17,9.87.37-1.49.17,3.1.19-1.22.4,4.32.06-1.46.15-7.69.16-10.05.15-7.61.28-4.53.56,2.93.16,3,.18,7,.13-2.34.62,1.51.16,3.78,0,2.16.05-1.4.24-4.06.51,1.79,0-.44H152l.15,2.81,0,.66.1-3.54.38-2.69.1.56.13-1.26.52,0,.15,2.67.17,4.74.31,6.46.22,6.85h.39l.15,1.84.12-6.84.15-7.1.16-5.83.17-3.4L156,347l.19,3.51.16,3.57.19,2.89.23-3.14.37-3.09.45,2.75.16,1.7.15,1,.1,1.22,0-.19.15-1.24.17-.71.56-1.46.26,3.23.16,3.47.15,1.8.15.75.06.81.21-3.88.19-1.71.18,0,.1-.35.31-5.78.65-.28.18,2.49.22,5.25,0-.72.18-2.08.19-3.39.63.89.14,4.38.13-.82.15-1.24.31-4.35.17-1,.55-.53.25,1.23,0,.38.07-.75.36-2.9.46,2.49.16,2.65.16-5.16.62,2,.16,6.06.15,5.24.17,1.86.15.53.16,1.25.15,2.44.13,3,.29-9.48.16-4.35.15-3.32.16-1.51.16-1.33.59-.51.13.73.06-.25.16-.89.56-1.53.27,3.29.28,9.89.13-2.42.63-1,.24,3.81.06-.92.15-4.4.17-2.92.52,0,.15,1.14.07,1,0-.2.15-1.25.38-2.66.45,2.16.16,1.25.18,1.87.38-.61.37.81.15.49.08.34.3-.42.28.43.08-.76.16-2,.15-3.37.46-2.63.19,1.64.31-2,.34,3.92.16,3.76.15,3,.22,2.14.05-.53.15-2.22L178,356l.19-3.42.65.68.16,2.68.11,2.37.15-1.2.18-.72.17-.2.13-.34.14-1.07.49-2.47.15,1.37.15-1.89h.51l.16,1.84.24,6.72.28-1.18.26,1.06.1-1.84.17-1.89.16-.38.16-.53.38-.91.3.59.21-.09.23,1,.15,2.4.12,1.35.34,0,.17,1.57.12,1.19.31-1.81.17-1.19.6-.42v.05l.16-2.77.15-1.23.16-.84.31-2.33.51,1.69.15,1.28.15,1,.29-2,.5,1.71.17,3,.26-5.43.48-2.7.5,5.25.16,1.36.14.76,0,.11.17-.26.4.63.12.93.3-.48.22,2.71.1-1.86.17-3,.15-3,.28-2.59.36,1,.12-.75.35.81a9.3,9.3,0,0,1,.66,3.79l.33,5.48-.51,0-.34-5.5a10.11,10.11,0,0,0-.32-2.76l-.14.57-.23-.5,0,.44-.16,3-.17,3-.15,3-.25,3.61-.57-2-.16-2.83-.11-1.32-.35-.44-.13-.95-.05.08-.43-.47-.17-.39-.15-.81-.21-2-.22,4.52-.24,2.54-.6-1.21-.23-4.07-.11.69-.57-.62-.36-2.38-.08.42-.15,1.2-.17,2.94-.26,3.67-.55-2-.11.62-.17,1.05-.17,1.56-.6.38-.21-1.68-.25-2.48-.32.4-.21-2.44-.16-2.39-.08-.37-.09,0-.11.36-.14.37-.15,1.77-.16,2.66-.43,2.52-.28-1.91-.21,1.72-.53-1.57-.15-3.71-.09-2.39-.16,2.41-.47-2.32,0,.16-.2.48-.11.15-.16.59-.15,1.26-.15,1.63-.5,2.83-.32-3.7-.14-2.83-.13,3-.16,2.23-.16,1.77-.46,2-.35-2.35-.17-1.4-.16-1.59-.15-3.05-.17-3.88-.31.9,0-.11-.08,1.77-.15,2.05-.16,1.45-.47,1.76-.32-2-.14.09-.44.22-.25-1.06-.13,1.42-.63-.29-.16-2.27-.18-1.66-.09.75-.16.77-.27,2-.53-1.11-.13,3.71-.16,2.33-.29,1.82-.53-1.18-.11-1.89-.2,4.14-.63-1-.15-3L169.58,352l0-.46-.11.46-.33.55-.37-.4,0,.37-.15,1.49-.16,3.3-.3,9.15-.16,5.27-.21,4-.63-1-.15-3.07-.16-3.5-.15-2.41-.15-1.22-.16-.53-.17-1.91-.15-5.4-.1,2.2-.51,0-.16-1.06-.15-3.63L165,352.9l0,.42-.33,1.3-.49-1L164,352.5l-.29,4.23-.16,1.27-.17,1.07-.15,2.5-.16,1.2-.51,0-.19-4.71-.08.94-.15,3.08-.16,2.17h-.51l-.16-2.05-.15-4.21-.12-2.71-.16,2.82-.21.82h-.12l-.12,1.17-.33,5.9-.48,3.43-.49-6.25-.15-.73-.16-1.85-.15-3.47,0-.44-.08.64-.16,2.11-.52,2.25-.47-5.38-.17-1.33L157,358l-.38,2.61-.46-2.16-.16-1.95-.15-2.42-.12-2.72-.15,5.72-.15,7.09-.15,8.51-.16,6.52-.51,0-.16-1.58-.15-6.08-.45.64-.18-4.71-.16-5.15-.3-6.46-.15-4-.14,1.58-.16-.86-.3,10.21-.52,0-.15-1.12-.16-7-.38.81-.05-.61-.14,4.86-.15,3.08h-.52l-.15-3.06-.17-6.09-.2,4.89-.57-3.24-.3-11.18-.13,6-.15,10.05-.15,7.69-.16,3.61-.55.86-.28-1.69-.16-1.93-.42-.89v.07h-.52l-.15-3.59-.21-12,0,1.23-.33,7.69-.57,3.12-.25-6-.12,5.89-.15,2.28h-.52l-.31-11.31-.15-2.59-.09-3.55,0,1.78L143.4,366l-.15,8.47-.15,5.39-.16,2.64h-.52l-.15-5.8-.17-11.41-.16-9.91-.09,4.65-.16,6.92-.4,3.46-.43-3.05-.16-2.18-.15-4.73-.31-13.5-.19-6.85-.23,16.35-.15,2h-.51L139,370.74,138.88,383l-.15,2.9h-.52l-.15-1.91-.16-2.79-.17-5.78-.31-15.06L137.23,348,137,368.47l-.15,1.87h-.52l-.15-6.17-.16-5-.13-.48-.13,6.56-.52,0-.15-1-.16-7.08-.15-4.57-.15-1-.14-2.65H134v0l-.11,13.48-.15,29.29-.16,12.13h-.52l-.15-13.4-.15-19-.06-3.59-.06,2.92h-.51l-.16-5.88-.18-28.62-.09,12.13-.15,26.31-.15,27.15-.16,24.85L131.08,445Z" transform="translate(-52.49 -268)"/><polygon class="cls-1" points="387.29 92.58 386.95 90.83 386.85 89.94 386.69 90.22 386.21 89.95 386.05 91.12 385.56 91.83 385.1 90.33 384.92 89.62 384.81 88.97 384.81 88.98 384.63 89.83 384.16 90.61 383.78 89.15 383.72 89.49 383.56 90.61 383.07 91.24 382.95 90.89 382.75 91.54 382.28 90.66 382.13 90.1 381.98 89.78 381.81 89.3 381.73 89.36 381.43 89.09 381.35 89.38 380.93 89.58 380.8 89.46 380.68 89.58 380.43 89.78 380.06 89.75 379.91 90.08 379.4 90.36 379.23 89.79 378.99 90.04 378.95 90.01 378.87 90.29 378.69 91.21 378.16 91.39 377.86 90.57 377.68 91.31 377.16 90.85 377.02 90.54 376.82 90.61 376.81 90.6 376.67 91.31 376.12 91.77 375.87 90.61 375.75 89.73 375.41 91 375.17 90.51 375.14 90.73 374.71 92.39 374.32 90.69 374.17 90.12 374.06 89.81 374.02 89.99 373.52 90.33 373.3 89.8 373 89.85 372.79 89.33 372.76 89.37 372.62 89.62 372.15 90.34 371.82 89.22 371.74 88.9 371.46 89.03 371.31 88.61 371.01 88.92 370.71 87.8 370.52 88.18 370.39 87.94 370.31 88.44 370.13 89.1 369.94 89.7 369.45 90.41 369.31 89.76 369.21 90.56 368.92 90.9 368.83 90.91 368.68 91.41 368.14 91.49 367.93 90.72 367.77 90.28 367.72 90.06 367.64 90.68 367.41 91.42 367.01 91.31 367.08 91.06 366.99 91.03 367.13 90.55 367.29 89.44 367.69 87.73 368.12 89.43 368.27 90.15 368.41 90.54 368.44 90.44 368.66 90.41 368.71 90.35 368.86 89.18 369.24 87.17 369.65 88.91 369.8 88.33 369.96 87.36 370.42 86.89 370.52 87.08 370.96 86.62 371.3 88 371.63 88 371.74 88.3 372.08 88.07 372.32 89.1 372.34 89.06 372.91 88.39 373.24 89.06 373.32 89.27 373.33 89.26 373.65 89.33 373.71 89.06 374.23 88.63 374.71 90.12 374.9 88.79 375.27 89.54 375.42 88.61 375.97 87.7 376.35 90.25 376.36 90.14 376.78 89.69 377.01 90 377.11 89.97 377.42 90.19 377.45 90.09 377.85 88.86 378.33 90.34 378.37 90.17 378.63 89.21 378.89 89.37 379.23 88.4 379.65 89.4 379.69 89.33 380.04 88.96 380.29 89.23 380.82 88.8 380.94 88.9 381.05 88.52 381.52 87.89 381.78 88.65 381.98 88.49 382.31 89.16 382.46 89.6 382.62 89.95 382.68 90.16 383.1 89.76 383.14 89.88 383.21 89.41 383.38 88.44 383.82 88.02 384.18 88.6 384.28 89 384.31 88.84 384.51 88.3 384.94 87.74 385.27 88.6 385.43 89.52 385.64 90.32 385.7 89.83 385.95 88.19 386.51 88.98 386.58 89.3 386.84 88.64 387.3 89.37 387.42 90.38 387.47 90.16 387.73 90.12 387.76 90.1 387.9 89.44 388.13 88.88 388.32 88.89 388.41 88.77 388.72 88.19 389.15 88.66 389.48 89.21 389.64 90.01 389.78 90.6 389.87 90.7 390.02 90.78 390.22 90.93 390.23 90.89 390.38 89.49 390.57 88.13 391.01 87.13 391.36 88.35 391.51 89.1 391.53 89.01 392.08 89.08 392.22 89.4 392.31 89.3 392.74 89.56 392.9 90.19 393.05 89.12 393.36 88.15 393.74 88.67 393.82 88.58 394.29 88.69 394.39 89.05 394.5 88.93 394.72 89.08 394.78 89.06 394.9 89.03 395 88.96 395.1 88.84 395.24 88.42 395.48 87.86 395.71 87.91 395.95 87.68 396.33 88.09 396.67 89.41 396.81 89.77 396.87 89.96 396.94 89.7 397.13 89.12 397.35 88.68 397.81 88.65 398.02 89 398.14 89.1 398.37 89.31 398.53 90.09 398.68 89.5 399.04 88.72 399.47 89.42 399.53 89.73 399.68 89.6 399.96 89.35 400.25 90.11 400.39 90.56 400.48 90.58 400.56 90.57 400.82 90.43 400.9 90.49 401.01 90.17 401.15 89.61 401.32 88.88 401.65 88.02 402.09 88.56 402.26 87.9 402.75 88.87 402.91 89.93 403.08 90.58 403.24 90.39 403.36 90.25 403.69 89 404.19 88.72 404.41 89.23 404.51 89.27 404.57 89.3 404.59 89.24 404.94 88.28 405.19 88.66 405.3 88.25 405.86 88.56 406.03 89.93 406.11 90.28 406.35 89.48 406.72 89.33 406.76 89.34 407.15 88.57 407.51 89.05 407.64 89.11 407.74 89.18 408.02 88.16 408.53 88.94 408.73 89.87 408.8 89.31 409.1 87.55 409.45 88.37 409.45 88.34 409.85 87.91 410.15 88.28 410.32 88.35 410.55 88.73 410.63 89.03 410.81 88.69 411.07 89.32 411.15 88.99 411.34 88.54 411.57 88.17 412.06 88.17 412.31 88.94 412.46 88.88 412.81 89.59 413.01 89.59 413.19 90.33 413.29 89.86 413.78 90.5 413.86 90.29 414.05 90.24 414.25 89.93 414.56 90.02 414.59 89.95 414.75 89.18 415.25 88.67 415.54 89.51 415.65 89.74 415.71 89.78 415.73 89.76 416.01 89.33 416.16 89.43 416.16 89.42 416.49 88.52 416.86 89.13 416.96 88.79 417.1 88.56 417.39 87.91 417.88 88.34 418.05 89.39 418.19 90.44 418.24 90.54 418.3 90.51 418.37 90.57 418.51 90.35 418.64 90.19 418.78 89.15 419.05 87.93 419.55 88.36 419.94 88.09 420.14 88.57 420.18 88.57 420.53 88.76 420.63 89.25 421.07 88.89 421.43 89.21 421.51 89.38 421.74 88.67 422.05 89 422.14 88.76 422.5 88.81 422.76 88.36 423.02 88.68 423.35 87.4 423.82 88.55 423.86 88.69 423.89 88.66 424.26 89.07 424.42 89.51 424.65 89.77 424.72 89.25 425.11 87.74 425.47 88.94 425.71 88.95 425.73 88.94 425.89 88.67 426.18 88.56 426.32 88.17 426.82 87.89 427.07 88.59 427.22 88.51 427.33 88.64 427.8 88.32 428.03 89.44 428.15 89.89 428.18 89.89 428.46 90.08 428.68 89.54 428.88 89.9 428.95 89.57 429.18 88.91 429.62 89.03 429.72 89.11 429.9 89.08 430.11 89.31 430.31 89.05 430.49 89.35 430.55 89.13 431.1 89.13 431.2 89.52 431.36 89.16 431.81 89.13 431.98 89.37 432.07 88.97 432.44 88 432.85 88.84 432.96 89 433.13 89.1 433.18 89.2 433.47 88.73 433.82 89.7 433.87 90 433.94 89.84 434.22 89.38 434.64 89.56 434.71 89.04 435.16 87.56 435.52 89.23 435.61 89.43 435.75 89.47 435.79 89.52 436.09 89.1 436.33 89.57 436.67 88.65 437.12 89.69 437.24 89.4 437.65 89.09 437.94 89.44 438.19 88.75 438.49 89.29 438.68 88.93 438.89 89.28 438.95 89.1 439.34 88.41 439.56 88.83 439.7 88.54 440.16 88.92 440.38 88.8 440.49 89.02 440.51 88.98 440.88 88.39 441.01 88.6 441.22 87.57 441.72 88.22 441.91 88.01 442.3 89.03 442.39 88.94 442.77 89.09 442.89 89.25 443.04 89.25 443.25 88.06 443.79 88.86 444.21 88.66 444.72 89.13 444.74 89.22 444.76 89.08 445.48 89.62 445.49 89.65 445.9 88.86 446.29 89.75 446.37 90.16 446.43 89.74 446.93 89.47 447.09 89.78 447.17 89.75 447.35 89.88 447.36 89.88 447.69 89.74 447.77 89.85 447.82 89.73 448 88.95 448.51 88.74 448.74 89.27 448.92 89.42 448.95 89.49 448.95 89.47 449.45 89.27 449.66 89.73 449.8 89.5 450.04 89.5 450.24 89.41 450.38 89.46 450.54 89.2 450.97 89.04 451.22 89.36 451.35 89.25 451.46 89.35 451.58 88.9 451.78 88.54 452.03 88.37 452.4 88.29 452.65 88.67 452.77 88.81 452.93 88.94 453.13 89.14 453.25 89.56 453.5 89.14 453.91 89.68 454.02 89.87 454.12 89.91 454.31 90.07 454.4 89.79 454.54 89.54 454.79 88.88 455.28 89.11 455.44 89.48 455.48 89.4 455.64 88.92 456.07 88.42 456.35 88.95 456.36 88.94 456.82 88.94 456.91 89.14 456.95 89.1 457.08 88.99 457.38 88.56 457.71 88.11 458 89.23 458.04 89.49 458.23 89.06 458.7 89.27 458.86 89.21 459.02 89.08 459.45 88.97 459.68 89.52 459.81 89.72 459.96 89.81 460.2 89.59 460.3 89.64 460.31 89.63 460.49 89.01 460.89 88.2 461.25 89.07 461.3 89.13 461.38 89.13 461.44 89.15 461.71 88.89 462.06 89.59 462.09 89.71 462.21 89.15 462.65 89.09 462.84 89.24 463.09 89.3 463.16 89.45 463.28 89.2 463.75 89.62 463.81 89.89 464.04 89.78 464.17 89.7 464.4 89.59 464.51 89.14 464.72 87.98 465.31 88.24 465.49 89.16 465.6 89.5 465.68 89.41 465.93 89.16 466.08 89.19 466.1 89.16 466.25 88.7 466.6 87.97 467 88.56 467.11 88.76 467.18 88.56 467.59 87.62 467.97 88.6 468.12 89.07 468.24 89.23 468.41 89.42 468.55 89.64 468.55 89.64 468.76 89.53 468.9 89.75 469.15 89.36 469.28 89.37 469.36 89.14 469.53 88.36 469.98 87.48 470.32 88.6 470.44 89.12 470.58 88.84 470.95 88.99 471.03 88.83 471.54 89 471.6 89.28 471.96 88.93 472.17 89.17 472.6 88.94 472.88 90.37 473.26 89.22 473.75 89.93 473.79 90.06 473.88 89.83 474.39 87.21 474.84 88.77 474.96 89.37 475.26 89.48 475.36 89.7 475.64 89.1 476.04 88.63 476.29 89.02 476.64 88.75 476.87 88.96 477.24 88.8 477.45 89.32 477.49 89.25 477.94 89.62 477.95 89.66 477.96 89.65 478.18 89.29 478.28 89.2 478.43 88.76 478.87 88.34 478.98 88.54 479.46 88.45 479.69 89.13 479.91 89.67 480.14 89.08 480.56 89.65 480.67 89.29 480.86 89.36 481.19 88.62 481.67 88.97 481.8 89.12 482 89.25 482.07 89.52 482.18 88.96 482.58 88.9 482.94 88.53 483.07 88.79 483.11 88.6 483.68 88.41 483.75 88.76 483.92 88.28 484.32 89.06 484.55 88.98 484.67 88.64 485.07 87.82 485.36 88.47 485.61 88.24 485.86 88.82 486.03 88.63 486.4 89.26 486.42 89.36 486.6 89.09 486.77 89.03 487.11 88.52 487.28 88.83 487.38 88.45 487.94 88.75 488.04 89.36 488.18 89.17 488.27 89.11 488.55 88.3 488.92 88.76 489.28 87.84 489.78 89.22 489.9 89.25 490.13 89.64 490.23 89.92 490.3 89.94 490.48 90 490.6 89.54 490.78 89.43 490.9 89.17 491.28 88.2 491.71 89.12 491.76 89.31 491.89 88.84 492.19 88.64 492.5 88.64 492.81 88.83 492.88 89.21 493.05 88.37 493.59 88.93 493.63 89.07 493.75 88.95 493.93 89.35 493.98 89.23 494.48 89.42 494.56 89.56 494.68 89.38 495.04 89.57 495.19 89.32 495.42 89.59 495.51 89.29 496.06 89.32 496.08 89.4 496.08 89.38 496.62 88.85 496.7 89.16 496.76 88.98 496.94 88.99 497.1 88.68 497.61 88.72 497.81 89.42 497.84 89.45 498.06 89.48 498.14 89.66 498.47 88.58 498.69 89.14 498.84 88.65 499.12 88.86 499.17 88.82 499.43 88.7 499.57 88.76 499.67 88.47 500.15 87.43 500.39 88.47 500.52 88.17 500.93 89.04 500.99 89.25 501.14 89.2 501.25 89.03 501.66 88.44 501.84 88.79 501.92 88.59 502.36 88.53 502.56 88.77 502.76 88.84 502.91 89.19 503.12 88.48 503.41 88.98 503.43 88.93 503.77 88.58 504.34 88.99 504.54 89.43 504.63 89.86 504.69 89.79 504.82 89.54 505.16 88.6 505.47 89.09 505.63 88.87 505.87 88.52 506.13 89.02 506.2 88.91 506.66 89.08 506.69 89.04 507.12 89.25 507.17 89.12 507.65 89.3 507.45 89.83 506.98 90.18 506.8 89.79 506.59 90.11 506.37 89.65 506.17 90 505.84 89.54 505.61 90.14 505.3 89.74 505.28 89.76 505.1 90.11 504.97 90.25 504.63 91.21 504.19 90.29 504.04 89.56 503.93 89.33 503.85 89.27 503.64 89.79 503.31 89.65 503.27 89.76 502.8 90.67 502.47 89.49 502.37 89.24 502.24 89.18 502.13 89.46 501.63 89.52 501.59 89.45 501.49 89.63 501.33 89.68 501.13 90 500.65 89.9 500.52 89.46 500.42 89.69 500.02 89.05 499.96 89.22 499.57 89.31 499.45 89.26 499.43 89.27 499.14 89.53 499.12 89.5 499.04 89.72 498.61 90.42 498.53 90.18 498.24 91.13 497.7 89.95 497.62 89.94 497.35 89.7 497.29 89.48 497.26 89.54 497.14 89.53 497.02 89.92 496.5 90.42 496.43 90.15 496.37 90.42 495.81 90.42 495.77 90.27 495.68 90.56 495.26 90.19 495.08 90.45 494.81 90.09 494.73 90.22 494.29 90.16 494.22 90.03 494.04 90.52 493.59 89.85 493.39 90.05 493.3 89.75 493.29 89.81 492.89 91.2 492.48 89.83 492.35 89.16 492.34 89.16 492.15 89.83 492 89.84 491.98 89.89 491.44 90.19 491.29 89.57 491.18 89.79 491.05 89.87 490.9 90.41 490.5 91.15 490.18 90.44 490.15 90.43 489.85 90.38 489.65 89.84 489.56 89.7 489.38 89.65 489.26 89.31 488.94 90.11 488.68 89.44 488.52 89.56 488.42 89.71 488.1 90.88 487.6 89.89 487.58 89.75 487.55 89.85 487.04 89.49 486.93 89.53 486.85 89.65 486.62 90.52 486.07 90.21 485.93 89.54 485.84 89.65 485.41 89.09 485.08 89.02 484.94 89.45 484.64 89.49 484.55 89.52 484.23 89.77 484.02 89.51 483.51 90.1 483.41 89.61 483.31 90.01 482.79 89.38 482.61 89.42 482.5 90.06 482.09 91.75 481.55 89.58 481.43 89.48 481.39 89.44 481.13 90 481.01 89.95 480.93 90.19 480.47 91.3 480.2 90.22 479.88 90.53 479.51 90.06 479.16 89.2 478.95 89.55 478.8 89.28 478.72 89.5 478.55 89.65 478.42 89.88 478.24 90.3 477.74 90.71 477.57 90.16 477.36 90.52 476.96 89.47 476.69 89.51 476.63 89.46 476.36 90.02 476 89.53 475.73 90.13 475.42 90.49 475.01 90.19 474.88 89.9 474.54 89.94 474.46 89.55 474.37 90 474.22 90.38 473.92 91 473.44 90.63 473.39 90.49 473.26 90.85 472.98 91.07 472.55 91.25 472.22 89.72 472.04 89.81 471.98 89.74 471.8 90.29 471.25 90.05 471.17 89.72 471.04 89.98 470.78 89.58 470.74 89.66 470.29 89.88 469.98 89.44 469.9 89.08 469.85 89.3 469.64 89.92 469.42 89.9 469.36 89.99 469.07 90.74 468.59 90.21 468.49 90.26 468.17 90.01 467.99 89.72 467.85 89.57 467.65 89.31 467.56 89.03 467.45 89.35 467 89.3 466.76 89.2 466.68 89.05 466.54 89.44 466.28 89.78 466.08 89.73 466.05 89.76 465.85 90.03 465.48 90.11 465.17 89.87 465 89.31 464.82 90.03 464.54 90.09 464.41 90.15 464.19 90.28 463.97 90.8 463.45 90.65 463.36 90.23 463.32 90.31 462.86 90.05 462.72 89.74 462.62 89.72 462.52 90.16 462.18 91.17 461.71 90.36 461.57 89.75 461.54 89.78 461.28 89.65 461.06 89.67 460.89 89.45 460.77 89.86 460.49 90.34 460.27 90.22 459.91 90.57 459.61 90.2 459.44 90.1 459.21 89.74 459.17 89.63 459.12 89.67 458.67 89.83 458.49 89.74 458.45 89.84 458.22 90.73 457.67 90.39 457.49 89.31 457.43 89.37 457.31 89.47 457.1 89.79 456.64 89.79 456.56 89.61 456.35 89.95 456.02 89.41 455.75 90.12 455.29 90.22 455.01 89.77 454.86 90.02 454.7 90.54 454.27 91.32 453.94 90.44 453.86 90.37 453.66 90.3 453.56 90.11 453.22 90.95 452.83 89.94 452.67 89.41 452.57 89.31 452.39 89.17 452.18 88.89 452.17 88.9 452.05 89.12 451.87 89.89 451.43 90.02 451.34 89.93 451.16 90.08 450.84 89.7 450.74 89.86 450.42 90.02 450.27 89.97 450.16 90.02 450.09 90.02 449.99 90.17 449.59 90.64 449.29 90.14 449.15 90.58 448.63 90.23 448.48 89.72 448.37 89.64 448.31 89.89 448.11 90.43 447.66 90.55 447.53 90.37 447.49 90.38 447.22 90.44 447.09 90.34 446.86 90.44 446.85 90.42 446.76 90.95 446.28 92.09 445.94 90.7 445.86 90.23 445.79 90.41 445.31 91.14 445.09 90.21 444.86 91.52 444.39 89.98 444.25 89.4 444.18 89.34 444.08 89.66 443.55 90.28 443.44 89.75 443.02 90.27 442.76 89.77 442.63 89.77 442.49 89.58 442.37 89.72 441.94 89.55 441.73 88.98 441.62 89.11 441.49 88.87 441.45 89.06 441.03 89.6 440.9 89.4 440.72 89.92 440.23 89.65 440.16 89.52 440.07 89.56 439.88 89.37 439.78 89.61 439.38 89.47 439.2 90.11 438.73 89.95 438.64 90.12 438.31 89.91 438.31 89.93 437.87 90.32 437.61 89.87 437.49 90.15 437.17 90.24 436.85 90.26 436.72 90.03 436.38 90.98 435.99 90.06 435.69 90.31 435.43 89.92 435.24 89.88 435.15 89.67 435.04 90.46 434.48 90.61 434.35 90.19 434.26 90.37 434.01 91.1 433.48 90.77 433.32 89.85 432.92 89.82 432.74 89.47 432.59 89.38 432.53 89.29 432.38 89.97 431.89 90.3 431.64 89.8 431.61 89.86 431.33 90.58 430.82 90.14 430.81 90.11 430.71 90.49 430.26 89.96 430.16 90.1 429.71 89.64 429.58 89.67 429.49 89.59 429.44 89.72 429.26 90.6 428.74 90.73 428.73 90.72 428.29 91.08 428.02 90.41 427.75 90.41 427.53 89.56 427.46 89.22 427.3 89.37 427.11 89.16 426.94 89.24 426.62 88.85 426.57 88.96 426.25 89.08 426.1 89.34 425.81 89.47 425.71 89.47 425.44 89.8 425.2 89.52 425.05 90.61 424.51 90.69 424.28 90.13 423.96 89.78 423.85 89.44 423.6 89.69 423.43 89.08 423.16 89.86 422.81 89.28 422.78 89.34 422.48 89.32 422.29 89.84 421.98 89.63 421.93 89.76 421.58 90.42 421.16 89.84 421.04 89.59 420.96 89.65 420.7 90.12 420.22 89.83 420.07 89.1 419.81 89.14 419.71 88.89 419.48 89.08 419.36 88.93 419.29 89.24 419.13 90.4 418.93 90.65 418.48 91.33 418.24 91.13 418.24 91.13 417.99 91.27 417.69 90.54 417.45 88.97 417.42 89.03 417.26 89.64 416.8 90.6 416.55 89.77 416.32 90.14 416.16 90.04 416.14 90.06 415.8 90.51 415.46 90.23 415.25 90.11 415.14 89.86 415.08 90.11 414.74 91.03 414.43 90.6 414.37 90.69 414.24 90.72 414.12 91.01 413.68 91.72 413.5 91.21 412.98 92.07 412.7 90.54 412.6 90.11 412.5 90.11 412.19 89.52 412.04 89.57 411.75 88.91 411.64 89.17 411.47 89.8 411.07 90.73 410.74 89.88 410.69 89.96 410.24 89.58 410.06 88.91 409.97 88.77 409.88 88.73 409.68 89.37 409.35 89.16 409.31 89.38 409.13 90.85 408.58 90.85 408.35 90.36 408.18 89.87 408.13 89.62 407.83 90.42 407.45 89.61 407.37 89.55 407.26 89.5 406.98 90.03 406.75 89.92 406.46 90.92 406.07 91.05 405.7 90.85 405.52 90.01 405.47 89.61 405.47 89.62 405.09 89.36 405.08 89.41 404.77 90.38 404.35 89.77 404.28 89.73 404.05 89.68 403.82 90.51 403.5 90.88 403.26 91.33 402.79 91.21 402.57 90.71 402.4 90.03 402.31 89.44 401.86 89.56 401.76 89.24 401.66 89.73 401.5 90.32 401.32 90.88 400.95 91.21 400.76 91.05 400.72 91.07 400.46 91.11 400.21 91.05 399.94 90.94 399.81 90.44 399.7 90.77 399.14 90.49 399.06 90.08 398.81 91.1 398.25 91.17 398.03 90.24 397.89 89.58 397.8 89.48 397.61 89.32 397.6 89.33 397.44 89.84 397.27 90.48 396.89 91.3 396.48 90.45 396.33 89.94 396.18 89.57 395.89 88.45 395.87 88.47 395.79 88.45 395.72 88.61 395.53 89.12 395.35 89.36 395.07 89.51 394.94 89.55 394.68 89.68 394.59 89.62 394.51 89.71 394.04 89.71 393.91 89.26 393.79 89.4 393.56 89.22 393.55 89.26 393.38 90.43 393.11 91.04 392.63 90.77 392.42 90.38 392.33 90.06 392.23 90.19 391.86 89.84 391.8 90.09 391.23 90.35 390.96 89.01 390.89 89.55 390.74 90.98 390.46 92.26 389.94 91.54 389.81 91.28 389.73 91.21 389.52 91.08 389.31 90.86 389.14 90.12 388.99 89.4 388.81 89.1 388.58 89.43 388.47 89.42 388.39 89.61 388.23 90.39 387.94 90.61 387.89 90.62 387.78 91.1 387.29 92.58"/><text class="cls-2" transform="translate(131.38 123.93)">P</text><text class="cls-2" transform="translate(185.68 123.93)">N</text><text class="cls-2" transform="translate(254.66 123.93)">S</text><text class="cls-2" transform="translate(303.82 123.93)">N</text><text class="cls-3" transform="translate(123.48 138.8)">Paciﬁc Northwest Seismic Network</text></svg>